<?xml version="1.0" standalone="no"?>
<!DOCTYPE svg PUBLIC "-//W3C//DTD SVG 20010904//EN"
 "http://www.w3.org/TR/2001/REC-SVG-20010904/DTD/svg10.dtd">
<svg version="1.0" xmlns="http://www.w3.org/2000/svg"
 width="137.000000pt" height="137.000000pt" viewBox="0 0 137.000000 137.000000"
 preserveAspectRatio="xMidYMid meet">
<metadata>
Created by potrace 1.14, written by Peter Selinger 2001-2017
</metadata>
<g transform="translate(0.000000,137.000000) scale(0.100000,-0.100000)"
fill="#000000" stroke="none">
<path d="M647 1354 c-1 -1 -20 -4 -42 -7 -57 -7 -128 -24 -177 -44 -48 -18
-162 -90 -193 -120 -92 -91 -134 -154 -185 -278 -32 -79 -48 -271 -28 -340 4
-16 11 -43 13 -59 15 -80 88 -209 164 -289 74 -79 211 -161 304 -183 4 -1 8
-2 10 -4 11 -9 109 -21 177 -20 63 0 82 2 145 17 17 4 32 7 35 8 145 31 330
183 407 334 21 41 38 77 39 80 0 3 6 25 13 49 38 132 29 332 -18 420 -6 12 -9
22 -6 22 3 0 -6 18 -20 40 -14 22 -25 43 -25 48 0 18 -112 143 -167 185 -53
40 -143 91 -183 103 -76 22 -252 47 -263 38z m171 -48 c12 -3 30 -8 40 -10 94
-23 189 -82 276 -170 85 -86 141 -178 162 -268 1 -5 2 -9 3 -10 10 -13 15 -72
15 -173 1 -106 -3 -129 -27 -198 -88 -251 -312 -420 -572 -432 -183 -8 -349
56 -475 186 -90 91 -87 88 -127 169 -89 180 -88 382 2 565 33 69 43 83 108
155 77 84 193 152 311 181 70 17 230 20 284 5z"/>
<path d="M525 1127 c-22 -13 -110 -46 -137 -52 -9 -2 -27 -9 -40 -16 -13 -7
-43 -13 -68 -13 -44 -1 -45 -1 -46 -36 -1 -36 -45 -143 -70 -171 -12 -13 -11
-19 4 -40 44 -63 81 -131 76 -143 -8 -22 10 -27 106 -30 76 -2 93 -6 104 -22
17 -22 46 -108 46 -134 0 -20 46 -36 63 -22 13 10 257 12 257 2 0 -8 -60 -63
-90 -83 -22 -14 -28 -14 -55 -1 -16 8 -46 28 -65 44 -19 16 -38 30 -42 30 -13
0 -9 -17 5 -23 6 -2 38 -25 69 -51 45 -36 62 -45 75 -38 24 12 99 10 113 -4
16 -16 24 -163 9 -180 -9 -11 -9 -18 -1 -26 18 -18 30 0 27 43 -2 37 2 45 47
89 30 29 47 53 43 60 -5 9 -1 10 16 6 23 -7 23 -6 5 8 -16 13 -21 13 -41 0
-15 -10 -21 -22 -18 -34 3 -12 -4 -24 -21 -36 -15 -9 -29 -15 -31 -12 -3 3 -7
28 -9 55 -2 28 -6 55 -9 60 -3 5 -4 18 -2 29 2 10 4 27 4 38 1 15 6 17 34 12
71 -13 85 -25 79 -66 -3 -22 0 -30 11 -30 9 0 15 9 15 23 -1 76 37 154 113
241 42 46 48 58 40 78 -5 13 -8 47 -8 76 0 50 -6 67 -22 67 -11 0 -207 199
-214 217 -4 11 -16 15 -38 13 -18 -1 -47 2 -64 7 -16 5 -37 11 -45 13 -86 20
-187 48 -195 55 -6 5 -19 3 -30 -3z m-3 -50 c-2 -9 2 -17 8 -17 5 0 10 6 11
13 0 19 58 -135 58 -159 1 -22 -45 -46 -116 -60 l-32 -6 23 63 c13 35 30 81
39 102 9 20 12 37 8 37 -4 0 -20 -33 -35 -72 -33 -89 -39 -101 -54 -106 -12
-4 -142 120 -142 137 0 14 15 22 115 58 98 34 122 37 117 10z m138 5 c14 -5
30 -10 35 -10 11 -1 84 -19 133 -34 17 -5 32 -14 32 -19 0 -5 -47 -33 -105
-61 -81 -41 -109 -50 -122 -42 -15 10 -73 145 -73 172 0 15 54 12 100 -6z
m341 -174 c49 -51 89 -98 89 -104 0 -19 -21 -28 -30 -13 -7 10 -12 10 -22 1
-11 -9 -22 -6 -51 14 -29 20 -40 36 -52 82 -9 31 -20 69 -25 85 -5 15 -7 27
-4 27 3 0 46 -41 95 -92z m-657 15 c51 -53 63 -70 53 -79 -13 -13 -204 -27
-211 -16 -7 12 66 162 80 162 7 0 42 -30 78 -67z m507 49 c-5 -9 -31 -55 -58
-102 -27 -47 -52 -93 -56 -103 -4 -10 -13 -17 -20 -15 -11 4 -80 128 -74 134
6 6 203 103 210 103 4 1 3 -7 -2 -17z m57 -44 c25 -85 15 -110 -58 -144 -94
-44 -100 -47 -95 -52 2 -2 12 -1 22 3 10 5 20 9 23 10 3 0 28 13 57 28 60 31
91 34 135 11 37 -19 27 -32 -33 -40 -24 -3 -55 -7 -69 -10 -70 -12 -139 -14
-145 -4 -7 11 17 62 70 151 14 24 33 59 42 77 9 17 20 32 24 32 5 0 17 -28 27
-62z m-243 -122 c14 -27 25 -54 25 -58 0 -12 -36 -3 -90 20 -41 18 -77 33 -90
37 -3 1 -16 6 -29 12 l-24 9 29 11 c100 37 109 39 131 30 13 -6 34 -33 48 -61z
m-267 -4 c-7 -9 -16 -21 -20 -27 -5 -5 -24 -28 -43 -50 -19 -22 -35 -43 -35
-47 0 -15 -40 -8 -40 7 0 8 -3 15 -7 15 -8 0 -63 92 -63 105 0 4 11 5 25 3 14
-3 27 -3 29 1 2 3 41 7 86 8 74 1 80 0 68 -15z m112 -13 c30 -11 73 -29 95
-38 22 -10 48 -21 58 -24 24 -9 21 -26 -5 -36 -64 -25 -74 -29 -83 -31 -5 -2
-23 -9 -40 -15 -16 -7 -55 -11 -85 -9 -30 2 -76 5 -102 6 -27 2 -48 7 -48 11
0 7 19 32 111 145 14 17 36 15 99 -9z m600 -19 c0 -11 0 -10 11 -57 9 -41 -1
-42 -29 -3 -22 30 -27 51 -15 63 10 11 33 8 33 -3z m-176 -63 c-21 -11 -40
-24 -42 -28 -2 -5 -12 -9 -23 -9 -10 0 -19 -4 -19 -10 0 -6 -3 -9 -7 -8 -5 0
-34 -11 -65 -26 -53 -25 -63 -26 -145 -20 -48 3 -96 6 -105 6 -10 0 -18 1 -18
2 0 2 35 17 78 34 103 41 164 56 267 68 28 3 52 7 53 9 2 2 18 3 34 3 l31 -1
-39 -20z m97 16 c0 -5 3 -20 5 -35 3 -15 -1 -30 -8 -34 -14 -9 -14 -9 -78 -18
-25 -4 -52 -9 -60 -11 -8 -2 -35 -7 -60 -10 -43 -5 -39 -2 65 54 107 58 134
69 136 54z m65 -65 c-27 -15 -46 2 -46 41 l0 36 30 -35 c23 -27 27 -36 16 -42z
m-53 -59 c-5 -17 -15 -23 -34 -21 -71 8 -138 14 -153 14 -43 -2 0 12 86 27 95
17 110 14 101 -20z m61 28 c-2 -7 -13 -18 -24 -25 -17 -10 -20 -10 -20 6 0 23
4 27 29 29 12 1 18 -3 15 -10z m-437 -38 c39 1 33 -14 -15 -39 -26 -14 -62
-35 -80 -47 -42 -28 -56 -22 -71 29 -7 22 -15 47 -18 55 -5 12 7 13 78 8 46
-4 94 -7 106 -6z m228 -14 c33 -3 69 -7 80 -10 11 -2 30 -4 43 -4 l22 -1 -29
-59 c-17 -32 -36 -61 -43 -64 -18 -6 -92 19 -96 33 -2 5 -10 10 -17 10 -7 0
-25 17 -41 38 -15 20 -33 40 -38 45 -16 10 13 26 38 21 12 -2 48 -7 81 -9z
m-127 -24 c12 -11 22 -22 22 -26 0 -3 7 -13 15 -21 8 -9 15 -19 15 -24 0 -5
-59 -8 -130 -7 -144 1 -146 3 -55 52 28 15 54 31 60 36 15 15 48 10 73 -10z
m66 -148 c-8 -36 -30 -53 -68 -53 l-31 0 45 40 c53 47 63 49 54 13z"/>
<path d="M972 253 c1 -27 -3 -63 -7 -82 -7 -29 -6 -33 11 -29 12 2 18 11 16
23 -2 11 -3 46 -4 78 -1 31 -4 57 -9 57 -4 0 -7 -21 -7 -47z"/>
</g>
</svg>
